<svg width="32" height="32" viewBox="0 0 32 32" fill="none" xmlns="http://www.w3.org/2000/svg">
<path d="M15.5411 15.2812L2.12109 29.3413C2.27517 29.873 2.54788 30.3629 2.91869 30.7741C3.28951 31.1852 3.74876 31.5068 4.26188 31.7148C4.775 31.9227 5.32861 32.0116 5.88103 31.9746C6.43345 31.9376 6.97028 31.7757 7.45109 31.5013L22.5511 22.9012L15.5411 15.2812Z" fill="#EA4335"/>
<path d="M29.1105 12.8884L22.5805 9.14844L15.2305 15.5984L22.6105 22.8784L29.0905 19.1784C29.5043 18.9633 29.8716 18.6686 30.1712 18.3111C30.4708 17.9536 30.6968 17.5404 30.8362 17.0952C30.9756 16.6501 31.0256 16.1818 30.9834 15.7173C30.9413 15.2528 30.8077 14.8012 30.5905 14.3884C30.2515 13.7499 29.729 13.2274 29.0905 12.8884H29.1105Z" fill="#FBBC04"/>
<path d="M2.12 2.66016C2.04015 2.9603 1.99981 3.26958 2 3.58016V28.4202C1.99981 28.7307 2.04015 29.04 2.12 29.3402L16 15.6402L2.12 2.66016Z" fill="#4285F4"/>
<path d="M15.6411 16L22.5811 9.15001L7.50109 0.510007C6.93359 0.17819 6.28848 0.00224921 5.63109 7.15214e-06C4.83707 -0.00156636 4.06432 0.256535 3.43062 0.734967C2.79693 1.2134 2.33705 1.88592 2.12109 2.65001L15.6411 16Z" fill="#34A853"/>
</svg>
